<?xml version="1.0" encoding="UTF-8" standalone="no"?>
<!DOCTYPE svg PUBLIC "-//W3C//DTD SVG 1.1//EN"
 "http://www.w3.org/Graphics/SVG/1.1/DTD/svg11.dtd">
<!-- Generated by graphviz version 9.0.0 (20230911.1827)
 -->
<!-- Title: G Pages: 1 -->
<svg width="1957pt" height="525pt"
 viewBox="0.00 0.00 1957.00 524.50" xmlns="http://www.w3.org/2000/svg" xmlns:xlink="http://www.w3.org/1999/xlink">
<g id="graph0" class="graph" transform="scale(1 1) rotate(0) translate(4 520.5)">
<title>G</title>
<polygon fill="white" stroke="none" points="-4,4 -4,-520.5 1953,-520.5 1953,4 -4,4"/>
<g id="clust1" class="cluster">
<title>cluster_egui_frontend</title>
<polygon fill="none" stroke="black" points="8,-333.5 8,-508.5 476,-508.5 476,-333.5 8,-333.5"/>
<text text-anchor="middle" x="242" y="-491.2" font-family="Times,serif" font-size="14.00">egui_frontend (GUI Crate)</text>
</g>
<g id="clust2" class="cluster">
<title>cluster_poker_core</title>
<polygon fill="none" stroke="black" points="134,-8 134,-299 1545,-299 1545,-8 134,-8"/>
<text text-anchor="middle" x="839.5" y="-281.7" font-family="Times,serif" font-size="14.00">poker_core (Core Crate)</text>
</g>
<g id="clust3" class="cluster">
<title>cluster_poker_eval</title>
<polygon fill="none" stroke="black" points="1553,-101.5 1553,-183 1941,-183 1941,-101.5 1553,-101.5"/>
<text text-anchor="middle" x="1747" y="-165.7" font-family="Times,serif" font-size="14.00">poker_eval (Eval Crate)</text>
</g>
<g id="clust4" class="cluster">
<title>cluster_tests</title>
<polygon fill="none" stroke="black" points="512,-427 512,-508.5 992,-508.5 992,-427 512,-427"/>
<text text-anchor="middle" x="752" y="-491.2" font-family="Times,serif" font-size="14.00">Integration Tests</text>
</g>
<!-- GUI_Main -->
<g id="node1" class="node">
<title>GUI_Main</title>
<polygon fill="lightblue" stroke="black" points="468.25,-476 15.75,-476 15.75,-435 468.25,-435 468.25,-476"/>
<text text-anchor="middle" x="242" y="-458.7" font-family="Times,serif" font-size="14.00">main.rs</text>
<text text-anchor="middle" x="242" y="-442.2" font-family="Times,serif" font-size="14.00">Sets up egui context, renders components like player hands, pot, action buttons.</text>
</g>
<!-- Game_View -->
<g id="node2" class="node">
<title>Game_View</title>
<polygon fill="lightblue" stroke="black" points="438.25,-382.5 45.75,-382.5 45.75,-341.5 438.25,-341.5 438.25,-382.5"/>
<text text-anchor="middle" x="242" y="-365.2" font-family="Times,serif" font-size="14.00">game_view.rs</text>
<text text-anchor="middle" x="242" y="-348.7" font-family="Times,serif" font-size="14.00">Renders snapshots from Projection, handles user inputs as messages.</text>
</g>
<!-- GUI_Main&#45;&gt;Game_View -->
<g id="edge1" class="edge">
<title>GUI_Main&#45;&gt;Game_View</title>
<path fill="none" stroke="black" d="M242,-434.65C242,-422.78 242,-407.44 242,-394"/>
<polygon fill="black" stroke="black" points="245.5,-394.33 242,-384.33 238.5,-394.33 245.5,-394.33"/>
<text text-anchor="middle" x="264.12" y="-403.7" font-family="Times,serif" font-size="14.00">Renders</text>
</g>
<!-- Game_State -->
<g id="node3" class="node">
<title>Game_State</title>
<polygon fill="lightblue" stroke="black" points="1179.38,-266.5 556.62,-266.5 556.62,-225.5 1179.38,-225.5 1179.38,-266.5"/>
<text text-anchor="middle" x="868" y="-249.2" font-family="Times,serif" font-size="14.00">game_state.rs</text>
<text text-anchor="middle" x="868" y="-232.7" font-family="Times,serif" font-size="14.00">Projection (mutable view), ContractState (immutable state machine), commit_step for transitions, hash chains.</text>
</g>
<!-- Game_View&#45;&gt;Game_State -->
<g id="edge2" class="edge">
<title>Game_View&#45;&gt;Game_State</title>
<path fill="none" stroke="black" d="M217.36,-341.05C206.97,-330.3 199.2,-317.18 208.5,-307 232.7,-280.5 390.22,-265.57 545.24,-257.24"/>
<polygon fill="black" stroke="black" points="545.08,-260.75 554.88,-256.73 544.71,-253.76 545.08,-260.75"/>
<text text-anchor="middle" x="358.25" y="-310.2" font-family="Times,serif" font-size="14.00">Polls snapshots, sends user actions as signed messages</text>
</g>
<!-- Message -->
<g id="node4" class="node">
<title>Message</title>
<polygon fill="lightblue" stroke="black" points="1537.12,-150.5 1116.88,-150.5 1116.88,-109.5 1537.12,-109.5 1537.12,-150.5"/>
<text text-anchor="middle" x="1327" y="-133.2" font-family="Times,serif" font-size="14.00">message.rs</text>
<text text-anchor="middle" x="1327" y="-116.7" font-family="Times,serif" font-size="14.00">Signed messages, variants like StartGameNotify, ActionMessage for bets.</text>
</g>
<!-- Game_State&#45;&gt;Message -->
<g id="edge3" class="edge">
<title>Game_State&#45;&gt;Message</title>
<path fill="none" stroke="black" d="M948.48,-225.01C1028.69,-205.09 1151.7,-174.54 1235.56,-153.71"/>
<polygon fill="black" stroke="black" points="1236.29,-157.14 1245.15,-151.33 1234.6,-150.34 1236.29,-157.14"/>
<text text-anchor="middle" x="1137" y="-194.2" font-family="Times,serif" font-size="14.00">Processes messages</text>
</g>
<!-- Players_State -->
<g id="node5" class="node">
<title>Players_State</title>
<polygon fill="lightblue" stroke="black" points="882.25,-150.5 627.75,-150.5 627.75,-109.5 882.25,-109.5 882.25,-150.5"/>
<text text-anchor="middle" x="755" y="-133.2" font-family="Times,serif" font-size="14.00">players_state.rs</text>
<text text-anchor="middle" x="755" y="-116.7" font-family="Times,serif" font-size="14.00">PlayerStateObjects, manages turns, indices.</text>
</g>
<!-- Game_State&#45;&gt;Players_State -->
<g id="edge4" class="edge">
<title>Game_State&#45;&gt;Players_State</title>
<path fill="none" stroke="black" d="M787.85,-225.06C779.85,-220.38 772.56,-214.62 766.75,-207.5 756.56,-195.01 753.34,-177.43 752.8,-162.28"/>
<polygon fill="black" stroke="black" points="756.3,-162.31 752.84,-152.3 749.3,-162.28 756.3,-162.31"/>
<text text-anchor="middle" x="839.12" y="-194.2" font-family="Times,serif" font-size="14.00">Manages players and turns</text>
</g>
<!-- Net -->
<g id="node6" class="node">
<title>Net</title>
<polygon fill="lightblue" stroke="black" points="609.75,-150.5 142.25,-150.5 142.25,-109.5 609.75,-109.5 609.75,-150.5"/>
<text text-anchor="middle" x="376" y="-133.2" font-family="Times,serif" font-size="14.00">net.rs (p2p&#45;net)</text>
<text text-anchor="middle" x="376" y="-116.7" font-family="Times,serif" font-size="14.00">libp2p Swarm, gossipsub, peer discovery, sync mechanisms (SyncReq/SyncResp).</text>
</g>
<!-- Game_State&#45;&gt;Net -->
<g id="edge5" class="edge">
<title>Game_State&#45;&gt;Net</title>
<path fill="none" stroke="black" d="M644.18,-225.03C619.64,-220.36 595.25,-214.6 572.25,-207.5 556.87,-202.75 554.75,-197.44 540,-191 509.81,-177.81 475.71,-165.01 446.45,-154.64"/>
<polygon fill="black" stroke="black" points="447.92,-151.45 437.33,-151.44 445.6,-158.06 447.92,-151.45"/>
<text text-anchor="middle" x="663.38" y="-194.2" font-family="Times,serif" font-size="14.00">Broadcasts messages, syncs state</text>
</g>
<!-- Crypto -->
<g id="node7" class="node">
<title>Crypto</title>
<polygon fill="lightblue" stroke="black" points="827.88,-57 466.12,-57 466.12,-16 827.88,-16 827.88,-57"/>
<text text-anchor="middle" x="647" y="-39.7" font-family="Times,serif" font-size="14.00">crypto.rs</text>
<text text-anchor="middle" x="647" y="-23.2" font-family="Times,serif" font-size="14.00">Ed25519 signatures, keys, commitments, Noise authentication.</text>
</g>
<!-- Game_State&#45;&gt;Crypto -->
<g id="edge6" class="edge">
<title>Game_State&#45;&gt;Crypto</title>
<path fill="none" stroke="black" d="M899.51,-225.01C904.98,-220 909.89,-214.13 913,-207.5 927.59,-176.35 941.42,-152.71 891,-101.5 874.32,-84.56 827.92,-70.48 780,-59.88"/>
<polygon fill="black" stroke="black" points="780.78,-56.47 770.27,-57.79 779.31,-63.31 780.78,-56.47"/>
<text text-anchor="middle" x="1016.38" y="-124.95" font-family="Times,serif" font-size="14.00">Signs/Verifies actions and hashes</text>
</g>
<!-- Eval -->
<g id="node8" class="node">
<title>Eval</title>
<polygon fill="lightblue" stroke="black" points="1932.75,-150.5 1561.25,-150.5 1561.25,-109.5 1932.75,-109.5 1932.75,-150.5"/>
<text text-anchor="middle" x="1747" y="-133.2" font-family="Times,serif" font-size="14.00">lib.rs or eval.rs</text>
<text text-anchor="middle" x="1747" y="-116.7" font-family="Times,serif" font-size="14.00">Hand ranking, evaluate_hand function, deterministic poker rules.</text>
</g>
<!-- Game_State&#45;&gt;Eval -->
<g id="edge8" class="edge">
<title>Game_State&#45;&gt;Eval</title>
<path fill="none" stroke="black" d="M1078.46,-225.03C1189.53,-214.62 1328.12,-201.84 1545,-184.13"/>
<polygon fill="black" stroke="black" points="1542.56,-188.28 1551.53,-182.64 1541,-181.45 1542.56,-188.28"/>
<text text-anchor="middle" x="1546.5" y="-194.2" font-family="Times,serif" font-size="14.00">Evaluates hands during showdown</text>
</g>
<!-- Net&#45;&gt;Crypto -->
<g id="edge7" class="edge">
<title>Net&#45;&gt;Crypto</title>
<path fill="none" stroke="black" d="M435.14,-109.03C477.01,-94.9 533.32,-75.88 577.36,-61.01"/>
<polygon fill="black" stroke="black" points="578.2,-64.42 586.55,-57.91 575.96,-57.79 578.2,-64.42"/>
<text text-anchor="middle" x="600.88" y="-78.2" font-family="Times,serif" font-size="14.00">Authenticates messages</text>
</g>
<!-- Tests -->
<g id="node9" class="node">
<title>Tests</title>
<polygon fill="lightblue" stroke="black" points="983.5,-476 520.5,-476 520.5,-435 983.5,-435 983.5,-476"/>
<text text-anchor="middle" x="752" y="-458.7" font-family="Times,serif" font-size="14.00">tests directory</text>
<text text-anchor="middle" x="752" y="-442.2" font-family="Times,serif" font-size="14.00">Unit tests for eval, integration with in&#45;memory libp2p, property tests via proptest.</text>
</g>
<!-- Tests&#45;&gt;Game_View -->
<g id="edge12" class="edge">
<title>Tests&#45;&gt;Game_View</title>
<path fill="none" stroke="black" d="M512,-430.4C503.74,-429.19 495.47,-427.93 487.24,-426.61"/>
<polygon fill="black" stroke="black" points="487.93,-423.18 477.49,-425.02 486.8,-430.09 487.93,-423.18"/>
<text text-anchor="middle" x="474.88" y="-403.7" font-family="Times,serif" font-size="14.00">Simulates GUI</text>
</g>
<!-- Tests&#45;&gt;Game_State -->
<g id="edge9" class="edge">
<title>Tests&#45;&gt;Game_State</title>
<path fill="none" stroke="black" d="M767.37,-427C784.13,-397.02 811.5,-348.07 833.46,-308.78"/>
<polygon fill="black" stroke="black" points="836.37,-310.75 838.19,-300.32 830.26,-307.34 836.37,-310.75"/>
<text text-anchor="middle" x="872.25" y="-356.95" font-family="Times,serif" font-size="14.00">Tests state machine</text>
</g>
<!-- Tests&#45;&gt;Net -->
<g id="edge10" class="edge">
<title>Tests&#45;&gt;Net</title>
<path fill="none" stroke="black" d="M723.77,-434.66C683.6,-406.06 608.15,-350.96 548,-299 494.13,-252.46 435.7,-193.37 402.69,-159.1"/>
<polygon fill="black" stroke="black" points="405.36,-156.83 395.91,-152.04 400.31,-161.68 405.36,-156.83"/>
<text text-anchor="middle" x="628" y="-310.2" font-family="Times,serif" font-size="14.00">Simulates network</text>
</g>
<!-- Tests&#45;&gt;Eval -->
<g id="edge11" class="edge">
<title>Tests&#45;&gt;Eval</title>
<path fill="none" stroke="black" d="M992,-439.59C1155.64,-421.92 1373.61,-383.32 1549,-299 1603.71,-272.7 1655.65,-227.58 1692.59,-190.73"/>
<polygon fill="black" stroke="black" points="1694.63,-193.64 1699.18,-184.07 1689.65,-188.72 1694.63,-193.64"/>
<text text-anchor="middle" x="1577.38" y="-310.2" font-family="Times,serif" font-size="14.00">Verifies hand logic</text>
</g>
</g>
</svg>
