<?xml version="1.0" encoding="UTF-8" standalone="no"?>
<!DOCTYPE svg PUBLIC "-//W3C//DTD SVG 1.1//EN"
 "http://www.w3.org/Graphics/SVG/1.1/DTD/svg11.dtd">
<!-- Generated by graphviz version 9.0.0 (20230911.1827)
 -->
<!-- Title: G Pages: 1 -->
<svg width="2000pt" height="431pt"
 viewBox="0.00 0.00 2000.00 431.00" xmlns="http://www.w3.org/2000/svg" xmlns:xlink="http://www.w3.org/1999/xlink">
<g id="graph0" class="graph" transform="scale(1 1) rotate(0) translate(4 427)">
<title>G</title>
<polygon fill="white" stroke="none" points="-4,4 -4,-427 1996,-427 1996,4 -4,4"/>
<g id="clust1" class="cluster">
<title>cluster_egui_frontend</title>
<polygon fill="none" stroke="black" points="608,-240 608,-415 1076,-415 1076,-240 608,-240"/>
<text text-anchor="middle" x="842" y="-397.7" font-family="Times,serif" font-size="14.00">egui_frontend (GUI Crate)</text>
</g>
<g id="clust2" class="cluster">
<title>cluster_poker_core</title>
<polygon fill="none" stroke="black" points="500,-8 500,-205.5 1588,-205.5 1588,-8 500,-8"/>
<text text-anchor="middle" x="1044" y="-188.2" font-family="Times,serif" font-size="14.00">poker_core (Core Crate)</text>
</g>
<g id="clust3" class="cluster">
<title>cluster_p2p_net</title>
<polygon fill="none" stroke="black" points="8,-124 8,-205.5 492,-205.5 492,-124 8,-124"/>
<text text-anchor="middle" x="250" y="-188.2" font-family="Times,serif" font-size="14.00">p2p&#45;net (Network Crate)</text>
</g>
<g id="clust4" class="cluster">
<title>cluster_poker_eval</title>
<polygon fill="none" stroke="black" points="1596,-8 1596,-89.5 1984,-89.5 1984,-8 1596,-8"/>
<text text-anchor="middle" x="1790" y="-72.2" font-family="Times,serif" font-size="14.00">poker_eval (Eval Crate)</text>
</g>
<g id="clust5" class="cluster">
<title>cluster_tests</title>
<polygon fill="none" stroke="black" points="1084,-333.5 1084,-415 1564,-415 1564,-333.5 1084,-333.5"/>
<text text-anchor="middle" x="1324" y="-397.7" font-family="Times,serif" font-size="14.00">Integration Tests</text>
</g>
<!-- GUI_Main -->
<g id="node1" class="node">
<title>GUI_Main</title>
<polygon fill="lightblue" stroke="black" points="1068.25,-382.5 615.75,-382.5 615.75,-341.5 1068.25,-341.5 1068.25,-382.5"/>
<text text-anchor="middle" x="842" y="-365.2" font-family="Times,serif" font-size="14.00">main.rs</text>
<text text-anchor="middle" x="842" y="-348.7" font-family="Times,serif" font-size="14.00">Sets up egui context, renders components like player hands, pot, action buttons.</text>
</g>
<!-- Game_View -->
<g id="node2" class="node">
<title>Game_View</title>
<polygon fill="lightblue" stroke="black" points="1068.25,-289 675.75,-289 675.75,-248 1068.25,-248 1068.25,-289"/>
<text text-anchor="middle" x="872" y="-271.7" font-family="Times,serif" font-size="14.00">game_view.rs</text>
<text text-anchor="middle" x="872" y="-255.2" font-family="Times,serif" font-size="14.00">Renders snapshots from Projection, handles user inputs as messages.</text>
</g>
<!-- GUI_Main&#45;&gt;Game_View -->
<g id="edge1" class="edge">
<title>GUI_Main&#45;&gt;Game_View</title>
<path fill="none" stroke="black" d="M848.51,-341.15C852.44,-329.16 857.53,-313.63 861.97,-300.09"/>
<polygon fill="black" stroke="black" points="865.24,-301.35 865.03,-290.75 858.59,-299.17 865.24,-301.35"/>
<text text-anchor="middle" x="882.12" y="-310.2" font-family="Times,serif" font-size="14.00">Renders</text>
</g>
<!-- Game_State -->
<g id="node3" class="node">
<title>Game_State</title>
<polygon fill="lightblue" stroke="black" points="1409.38,-173 786.62,-173 786.62,-132 1409.38,-132 1409.38,-173"/>
<text text-anchor="middle" x="1098" y="-155.7" font-family="Times,serif" font-size="14.00">game_state.rs</text>
<text text-anchor="middle" x="1098" y="-139.2" font-family="Times,serif" font-size="14.00">Projection (mutable view), ContractState (immutable state machine), commit_step for transitions, hash chains.</text>
</g>
<!-- Game_View&#45;&gt;Game_State -->
<g id="edge2" class="edge">
<title>Game_View&#45;&gt;Game_State</title>
<path fill="none" stroke="black" d="M911.62,-247.51C949.67,-228.32 1007.27,-199.27 1048.35,-178.54"/>
<polygon fill="black" stroke="black" points="1049.72,-181.78 1057.07,-174.15 1046.56,-175.53 1049.72,-181.78"/>
<text text-anchor="middle" x="1128.25" y="-216.7" font-family="Times,serif" font-size="14.00">Polls snapshots, sends user actions as signed messages</text>
</g>
<!-- Message -->
<g id="node4" class="node">
<title>Message</title>
<polygon fill="lightblue" stroke="black" points="1308.12,-57 887.88,-57 887.88,-16 1308.12,-16 1308.12,-57"/>
<text text-anchor="middle" x="1098" y="-39.7" font-family="Times,serif" font-size="14.00">message.rs</text>
<text text-anchor="middle" x="1098" y="-23.2" font-family="Times,serif" font-size="14.00">Signed messages, variants like StartGameNotify, ActionMessage for bets.</text>
</g>
<!-- Game_State&#45;&gt;Message -->
<g id="edge3" class="edge">
<title>Game_State&#45;&gt;Message</title>
<path fill="none" stroke="black" d="M1098,-131.64C1098,-114.23 1098,-88.64 1098,-68.53"/>
<polygon fill="black" stroke="black" points="1101.5,-68.64 1098,-58.64 1094.5,-68.64 1101.5,-68.64"/>
<text text-anchor="middle" x="1152" y="-100.7" font-family="Times,serif" font-size="14.00">Processes messages</text>
</g>
<!-- Players_State -->
<g id="node5" class="node">
<title>Players_State</title>
<polygon fill="lightblue" stroke="black" points="1580.25,-57 1325.75,-57 1325.75,-16 1580.25,-16 1580.25,-57"/>
<text text-anchor="middle" x="1453" y="-39.7" font-family="Times,serif" font-size="14.00">players_state.rs</text>
<text text-anchor="middle" x="1453" y="-23.2" font-family="Times,serif" font-size="14.00">PlayerStateObjects, manages turns, indices.</text>
</g>
<!-- Game_State&#45;&gt;Players_State -->
<g id="edge4" class="edge">
<title>Game_State&#45;&gt;Players_State</title>
<path fill="none" stroke="black" d="M1167.03,-131.54C1181.21,-126.52 1195.83,-120.63 1209,-114 1220.48,-108.22 1220.68,-101.92 1232.75,-97.5 1268.07,-84.57 1280.38,-98.07 1317,-89.5 1344.87,-82.98 1374.7,-72.05 1399.29,-61.89"/>
<polygon fill="black" stroke="black" points="1400.59,-65.14 1408.45,-58.03 1397.88,-58.69 1400.59,-65.14"/>
<text text-anchor="middle" x="1305.12" y="-100.7" font-family="Times,serif" font-size="14.00">Manages players and turns</text>
</g>
<!-- Crypto -->
<g id="node6" class="node">
<title>Crypto</title>
<polygon fill="lightblue" stroke="black" points="869.88,-57 508.12,-57 508.12,-16 869.88,-16 869.88,-57"/>
<text text-anchor="middle" x="689" y="-39.7" font-family="Times,serif" font-size="14.00">crypto.rs</text>
<text text-anchor="middle" x="689" y="-23.2" font-family="Times,serif" font-size="14.00">Ed25519 signatures, keys, commitments, Noise authentication.</text>
</g>
<!-- Game_State&#45;&gt;Crypto -->
<g id="edge6" class="edge">
<title>Game_State&#45;&gt;Crypto</title>
<path fill="none" stroke="black" d="M988.04,-131.6C963.3,-126.45 937.26,-120.5 913.25,-114 857.86,-99 796.25,-77.63 751.64,-61.29"/>
<polygon fill="black" stroke="black" points="752.98,-58.05 742.39,-57.88 750.56,-64.62 752.98,-58.05"/>
<text text-anchor="middle" x="1004.38" y="-100.7" font-family="Times,serif" font-size="14.00">Signs/Verifies actions and hashes</text>
</g>
<!-- Net -->
<g id="node7" class="node">
<title>Net</title>
<polygon fill="lightblue" stroke="black" points="483.75,-173 16.25,-173 16.25,-132 483.75,-132 483.75,-173"/>
<text text-anchor="middle" x="250" y="-155.7" font-family="Times,serif" font-size="14.00">net.rs or lib.rs</text>
<text text-anchor="middle" x="250" y="-139.2" font-family="Times,serif" font-size="14.00">libp2p Swarm, gossipsub, peer discovery, sync mechanisms (SyncReq/SyncResp).</text>
</g>
<!-- Game_State&#45;&gt;Net -->
<g id="edge5" class="edge">
<title>Game_State&#45;&gt;Net</title>
<path fill="none" stroke="black" d="M500,-152.5C498.51,-152.5 497.02,-152.5 495.54,-152.5"/>
<polygon fill="black" stroke="black" points="503.51,-149 493.51,-152.5 503.51,-156 503.51,-149"/>
<text text-anchor="middle" x="635.19" y="-158.7" font-family="Times,serif" font-size="14.00">Broadcasts messages, syncs state</text>
</g>
<!-- Eval -->
<g id="node8" class="node">
<title>Eval</title>
<polygon fill="lightblue" stroke="black" points="1975.75,-57 1604.25,-57 1604.25,-16 1975.75,-16 1975.75,-57"/>
<text text-anchor="middle" x="1790" y="-39.7" font-family="Times,serif" font-size="14.00">lib.rs or eval.rs</text>
<text text-anchor="middle" x="1790" y="-23.2" font-family="Times,serif" font-size="14.00">Hand ranking, evaluate_hand function, deterministic poker rules.</text>
</g>
<!-- Game_State&#45;&gt;Eval -->
<g id="edge8" class="edge">
<title>Game_State&#45;&gt;Eval</title>
<path fill="none" stroke="black" d="M1249.33,-131.55C1291.33,-125.94 1336.95,-119.8 1379,-114"/>
<polygon fill="black" stroke="black" points="1584.97,-93.61 1594.5,-88.98 1584.16,-86.65 1584.97,-93.61"/>
<text text-anchor="middle" x="1589.5" y="-100.7" font-family="Times,serif" font-size="14.00">Evaluates hands during showdown</text>
</g>
<!-- Net&#45;&gt;Crypto -->
<g id="edge7" class="edge">
<title>Net&#45;&gt;Crypto</title>
<path fill="none" stroke="black" d="M355.89,-124C395.96,-113.6 443.01,-101.38 488.91,-89.46"/>
<polygon fill="black" stroke="black" points="489.74,-92.86 498.54,-86.96 487.98,-86.09 489.74,-92.86"/>
<text text-anchor="middle" x="521.88" y="-100.7" font-family="Times,serif" font-size="14.00">Authenticates messages</text>
</g>
<!-- Tests -->
<g id="node9" class="node">
<title>Tests</title>
<polygon fill="lightblue" stroke="black" points="1555.5,-382.5 1092.5,-382.5 1092.5,-341.5 1555.5,-341.5 1555.5,-382.5"/>
<text text-anchor="middle" x="1324" y="-365.2" font-family="Times,serif" font-size="14.00">tests directory</text>
<text text-anchor="middle" x="1324" y="-348.7" font-family="Times,serif" font-size="14.00">Unit tests for eval, integration with in&#45;memory libp2p, property tests via proptest.</text>
</g>
<!-- Tests&#45;&gt;Game_View -->
<g id="edge12" class="edge">
<title>Tests&#45;&gt;Game_View</title>
<path fill="none" stroke="black" d="M1143.01,-333.5C1125.15,-330.33 1107.32,-326.97 1090.25,-323.5 1089.22,-323.29 1088.19,-323.08 1087.16,-322.87"/>
<polygon fill="black" stroke="black" points="1087.98,-319.46 1077.48,-320.84 1086.55,-326.32 1087.98,-319.46"/>
<text text-anchor="middle" x="1130.88" y="-310.2" font-family="Times,serif" font-size="14.00">Simulates GUI</text>
</g>
<!-- Tests&#45;&gt;Game_State -->
<g id="edge9" class="edge">
<title>Tests&#45;&gt;Game_State</title>
<path fill="none" stroke="black" d="M1323.35,-333.5C1321.33,-306.74 1314.42,-266.35 1292,-240 1283.01,-229.43 1272.46,-220.09 1261.02,-211.86"/>
<polygon fill="black" stroke="black" points="1263.15,-209.08 1252.91,-206.35 1259.21,-214.87 1263.15,-209.08"/>
<text text-anchor="middle" x="1368.25" y="-263.45" font-family="Times,serif" font-size="14.00">Tests state machine</text>
</g>
<!-- Tests&#45;&gt;Net -->
<g id="edge10" class="edge">
<title>Tests&#45;&gt;Net</title>
<path fill="none" stroke="black" d="M1242.21,-333.5C1221.02,-322.71 1200.19,-308.19 1186,-289 1165.71,-261.56 1198.11,-235.48 1172,-213.5 1158.54,-202.17 593.76,-206.85 503.49,-205.43"/>
<polygon fill="black" stroke="black" points="503.62,-201.93 493.51,-205.1 503.39,-208.93 503.62,-201.93"/>
<text text-anchor="middle" x="1237" y="-263.45" font-family="Times,serif" font-size="14.00">Simulates network</text>
</g>
<!-- Tests&#45;&gt;Eval -->
<g id="edge11" class="edge">
<title>Tests&#45;&gt;Eval</title>
<path fill="none" stroke="black" d="M1377.69,-333.5C1433.05,-304.31 1521.07,-255.57 1592,-205.5 1638.94,-172.36 1688.22,-130.58 1725.87,-96.98"/>
<polygon fill="black" stroke="black" points="1727.97,-99.79 1733.08,-90.51 1723.3,-94.58 1727.97,-99.79"/>
<text text-anchor="middle" x="1629.38" y="-216.7" font-family="Times,serif" font-size="14.00">Verifies hand logic</text>
</g>
</g>
</svg>
